[Header]
# KeyWord<space>Value<CR>FileType htr
DataType HTRS
FileVersion 1.0
NumSegments 32
NumFrames 4
DataFrameRate 24
EulerRotationOrder XYZ
CalibrationUnits m
RotationUnits Degrees
GlobalAxisofGravity Z
BoneLengthAxis Z
BoneLengthAxis Z
ScaleFactor 1.00
[SegmentNames&Hierarchy]
# ObjectName<tab>ParentObjectName<CR>
pelvis	GLOBAL
spine01	pelvis
spine02	spine01
spine03	spine02
neck	spine03
head	neck
Collar_left	spine03
shoulder_up_left	Collar_left
bicep_up_left	shoulder_up_left
forearm_up_left	bicep_up_left
hand_up_left	forearm_up_left
shoulder_down_left	Collar_left
bicep_down_left	shoulder_down_left
forearm_down_left	bicep_down_left
hand_down_left	forearm_down_left
Collar_right	spine03
shoulder_up_right	Collar_right
bicep_up_right	shoulder_up_right
forearm_up_right	bicep_up_right
hand_up_right	forearm_up_right
shoulder_down_right	Collar_right
bicep_down_right	shoulder_down_right
forearm_down_right	bicep_down_right
hand_down_right	forearm_down_right
hip_left	pelvis
thigh_left	hip_left
shin_left	thigh_left
foot_left	shin_left
hip_right	pelvis
thigh_right	hip_right
shin_right	thigh_right
foot_right	shin_right
[BasePosition]
# ObjectName<tab>Tx<tab>Ty<tab>Tz<tab>Rx<tab>Ry<tab>Rz<tab>BoneLength<CR>
pelvis	0.000000	-0.438872	6.292977	90.000003	-0.000000	0.000000	1.000000
spine01	0.000000	-0.438872	7.970248	90.000003	-0.000000	0.000000	1.000000
spine02	0.000000	-0.438872	10.340697	90.000003	-0.000000	0.000000	1.000000
spine03	0.000000	-0.438872	13.021563	90.000003	-0.000000	0.000000	1.000000
neck	0.000000	-0.438872	16.182161	90.000003	-0.000000	0.000000	1.000000
head	0.000000	-0.438872	17.452044	90.000003	-0.000000	0.000014	1.000000
Collar_left	0.000000	-0.438872	16.182161	114.324943	-109.283163	-3.448282	1.000000
shoulder_up_left	-2.246972	-1.353188	15.416688	89.999955	-101.168646	0.000051	1.000000
bicep_up_left	-4.544489	-1.353188	14.963074	94.597615	-95.170613	-0.305692	1.000000
forearm_up_left	-8.587797	-1.657960	14.597347	85.600206	-93.126604	-0.279561	1.000000
hand_up_left	-12.306015	-1.353188	14.394166	85.300436	-97.657908	-0.750653	1.000000
shoulder_down_left	-2.246972	-1.353188	15.416688	97.171845	-144.053812	-0.627842	1.000000
bicep_down_left	-4.260035	-1.761673	12.646806	95.982825	-137.161086	0.000016	1.000000
forearm_down_left	-6.332484	-2.081106	10.411811	78.293864	-138.751741	0.000033	1.000000
hand_down_left	-8.648752	-1.353187	7.770453	89.999989	-141.340205	0.000017	1.000000
Collar_right	0.000000	-0.438872	16.182161	114.324943	109.283163	3.448282	1.000000
shoulder_up_right	2.246972	-1.353188	15.416688	89.999955	101.168646	-0.000051	1.000000
bicep_up_right	4.544489	-1.353188	14.963074	94.597615	95.170613	0.305692	1.000000
forearm_up_right	8.587797	-1.657960	14.597347	85.600206	93.126604	0.279561	1.000000
hand_up_right	12.306015	-1.353188	14.394166	85.300436	97.657908	0.750653	1.000000
shoulder_down_right	2.246972	-1.353188	15.416688	97.171845	144.053812	0.627842	1.000000
bicep_down_right	4.260035	-1.761673	12.646806	95.982825	137.161086	-0.000016	1.000000
forearm_down_right	6.332484	-2.081106	10.411811	78.293864	138.751741	-0.000033	1.000000
hand_down_right	8.648752	-1.353187	7.770453	89.999989	141.340205	-0.000017	1.000000
hip_left	0.000000	-0.438872	6.292977	-6.241914	-0.000005	89.999996	1.000000
thigh_left	-2.600721	-0.438872	6.008523	-79.303489	-0.000003	90.000003	1.000000
shin_left	-3.000499	-0.438872	3.892051	-90.969439	1.681318	89.968611	1.000000
foot_left	-2.953466	-0.520526	1.111133	-93.081914	-75.718200	93.179995	1.000000
hip_right	0.000000	-0.438872	6.292977	-6.241914	0.000005	-89.999996	1.000000
thigh_right	2.600721	-0.438872	6.008523	-79.303489	0.000003	-90.000003	1.000000
shin_right	3.000499	-0.438872	3.892051	-90.969439	-1.681318	-89.968611	1.000000
foot_right	2.953466	-0.520526	1.111133	-93.081914	75.718200	-93.179995	1.000000
[pelvis]
# Tx<tab>Ty<tab>Tz<tab>Rx<tab>Ry<tab>Rz<tab>BoneScaleFactor<CR>
37	0.000000	0.000000	0.000000	0.000000	-0.000000	0.000000	1.000000
38	0.000000	0.000000	0.000000	0.000000	-0.000000	0.000000	1.000000
39	0.000000	0.000000	0.000000	0.000000	-0.000000	0.000000	1.000000
40	0.000000	0.000000	0.000000	0.000000	-0.000000	0.000000	1.000000
[spine01]
# Tx<tab>Ty<tab>Tz<tab>Rx<tab>Ry<tab>Rz<tab>BoneScaleFactor<CR>
37	0.000000	0.000000	0.000000	-13.975105	0.000000	0.000000	1.000000
38	0.000000	0.000000	0.000000	-13.368117	0.000000	0.000000	1.000000
39	0.000000	0.000000	0.000000	-12.710414	0.000000	0.000000	1.000000
40	0.000000	0.000000	0.000000	-12.009169	0.000000	0.000000	1.000000
[spine02]
# Tx<tab>Ty<tab>Tz<tab>Rx<tab>Ry<tab>Rz<tab>BoneScaleFactor<CR>
37	0.000000	0.000000	0.000000	-17.149669	0.000000	0.000000	1.000000
38	0.000000	0.000000	0.000000	-16.405189	0.000000	0.000000	1.000000
39	0.000000	0.000000	0.000000	-15.598298	0.000000	0.000000	1.000000
40	0.000000	0.000000	0.000000	-14.737783	0.000000	0.000000	1.000000
[spine03]
# Tx<tab>Ty<tab>Tz<tab>Rx<tab>Ry<tab>Rz<tab>BoneScaleFactor<CR>
37	0.000000	0.000000	0.000000	-13.248900	0.000000	0.000000	1.000000
38	0.000000	0.000000	0.000000	-12.673396	0.000000	0.000000	1.000000
39	0.000000	0.000000	0.000000	-12.049831	0.000000	0.000000	1.000000
40	0.000000	0.000000	0.000000	-11.385025	0.000000	0.000000	1.000000
[neck]
# Tx<tab>Ty<tab>Tz<tab>Rx<tab>Ry<tab>Rz<tab>BoneScaleFactor<CR>
37	0.000000	0.000000	-0.000000	0.000000	-0.000000	0.000000	1.000000
38	0.000000	0.000000	0.000000	0.000000	-0.000000	0.000000	1.000000
39	-0.000000	0.000000	0.000001	0.000002	-0.000000	0.000000	1.000000
40	0.000000	0.000001	-0.000000	0.000000	-0.000000	0.000000	1.000000
[head]
# Tx<tab>Ty<tab>Tz<tab>Rx<tab>Ry<tab>Rz<tab>BoneScaleFactor<CR>
37	0.000000	-0.000001	0.000000	-2.250705	-0.000000	-0.000001	1.000000
38	-0.000000	0.000000	0.000000	-2.152846	-0.000000	-0.000001	1.000000
39	-0.000000	0.000000	0.000000	-2.046868	-0.000000	-0.000001	1.000000
40	0.000000	-0.000001	-0.000000	-1.933926	-0.000000	-0.000001	1.000000
[Collar_left]
# Tx<tab>Ty<tab>Tz<tab>Rx<tab>Ry<tab>Rz<tab>BoneScaleFactor<CR>
37	-0.000001	-0.000000	0.000000	-0.000002	-0.000000	-0.000002	1.000000
38	-0.000001	-0.000000	0.000000	0.000002	-0.000000	-0.000001	1.000000
39	0.000000	-0.000000	-0.000001	0.000002	0.000002	-0.000001	1.000000
40	0.000000	-0.000000	0.000000	-0.000001	-0.000000	0.000001	1.000000
[shoulder_up_left]
# Tx<tab>Ty<tab>Tz<tab>Rx<tab>Ry<tab>Rz<tab>BoneScaleFactor<CR>
37	-0.000002	-0.000001	-0.000001	-0.000002	-0.000007	-33.102416	1.000000
38	-0.000001	-0.000001	0.000001	0.000000	-0.000000	-31.671570	1.000000
39	0.000000	0.000000	0.000000	0.000000	-0.000007	-30.117528	1.000000
40	0.000000	-0.000000	0.000000	0.000000	-0.000009	-28.456952	1.000000
[bicep_up_left]
# Tx<tab>Ty<tab>Tz<tab>Rx<tab>Ry<tab>Rz<tab>BoneScaleFactor<CR>
37	-0.000002	0.000000	-0.000000	0.000002	-0.000000	0.000000	1.000000
38	0.000001	0.000001	-0.000000	-0.000002	-0.000000	0.000002	1.000000
39	0.000000	0.000001	0.000000	0.000001	-0.000003	0.000002	1.000000
40	-0.000001	-0.000001	0.000000	-0.000002	0.000002	-0.000002	1.000000
[forearm_up_left]
# Tx<tab>Ty<tab>Tz<tab>Rx<tab>Ry<tab>Rz<tab>BoneScaleFactor<CR>
37	0.000001	0.000000	0.000001	-0.000003	0.000003	0.000002	1.000000
38	0.000001	0.000001	0.000001	0.000001	-0.000002	-0.000003	1.000000
39	0.000000	-0.000001	0.000000	-0.000001	0.000002	0.000001	1.000000
40	-0.000001	-0.000001	0.000000	0.000001	-0.000003	-0.000001	1.000000
[hand_up_left]
# Tx<tab>Ty<tab>Tz<tab>Rx<tab>Ry<tab>Rz<tab>BoneScaleFactor<CR>
37	0.000000	-0.000002	0.000000	-0.973669	-34.270129	-6.215439	1.000000
38	0.000001	0.000000	0.000000	-1.016496	-32.788890	-5.918764	1.000000
39	-0.000001	0.000002	0.000001	-1.052091	-31.179452	-5.603287	1.000000
40	-0.000001	-0.000002	0.000000	-1.078237	-29.459012	-5.273033	1.000000
[shoulder_down_left]
# Tx<tab>Ty<tab>Tz<tab>Rx<tab>Ry<tab>Rz<tab>BoneScaleFactor<CR>
37	0.000001	-0.000000	0.000000	-0.000002	-0.000000	-0.000003	1.000000
38	0.000000	0.000000	0.000000	-0.000002	-0.000000	0.000002	1.000000
39	0.000001	0.000001	0.000000	0.000002	-0.000000	-0.000002	1.000000
40	0.000001	-0.000001	0.000000	0.000000	-0.000000	0.000000	1.000000
[bicep_down_left]
# Tx<tab>Ty<tab>Tz<tab>Rx<tab>Ry<tab>Rz<tab>BoneScaleFactor<CR>
37	0.000001	0.000000	0.000000	-33.960428	-26.003102	11.175410	1.000000
38	-0.000001	-0.000000	-0.000001	-32.267105	-25.050562	10.317691	1.000000
39	0.000001	0.000000	0.000000	-30.457470	-23.988980	9.427395	1.000000
40	0.000000	-0.000000	0.000000	-28.556883	-22.825299	8.523287	1.000000
[forearm_down_left]
# Tx<tab>Ty<tab>Tz<tab>Rx<tab>Ry<tab>Rz<tab>BoneScaleFactor<CR>
37	-0.000001	0.000000	0.000000	-22.417372	-19.370712	-0.169784	1.000000
38	0.000000	-0.000000	0.000000	-21.403931	-18.540395	-0.327820	1.000000
39	-0.000001	0.000000	0.000000	-20.312028	-17.636283	-0.481047	1.000000
40	0.000001	-0.000001	-0.000000	-19.154552	-16.667854	-0.623973	1.000000
[hand_down_left]
# Tx<tab>Ty<tab>Tz<tab>Rx<tab>Ry<tab>Rz<tab>BoneScaleFactor<CR>
37	0.000000	0.000000	0.000000	0.000000	-0.000000	0.000003	1.000000
38	-0.000001	-0.000000	-0.000000	0.000000	0.000001	0.000002	1.000000
39	0.000000	0.000000	0.000000	0.000002	-0.000000	0.000002	1.000000
40	0.000000	-0.000001	0.000000	0.000002	-0.000000	-0.000002	1.000000
[Collar_right]
# Tx<tab>Ty<tab>Tz<tab>Rx<tab>Ry<tab>Rz<tab>BoneScaleFactor<CR>
37	0.000001	-0.000000	0.000000	-0.000002	-0.000000	0.000002	1.000000
38	0.000001	-0.000000	0.000000	0.000002	-0.000000	0.000001	1.000000
39	0.000000	-0.000000	-0.000001	0.000002	-0.000002	0.000001	1.000000
40	0.000000	-0.000000	0.000000	-0.000001	-0.000000	-0.000001	1.000000
[shoulder_up_right]
# Tx<tab>Ty<tab>Tz<tab>Rx<tab>Ry<tab>Rz<tab>BoneScaleFactor<CR>
37	0.000002	-0.000001	-0.000001	4.930319	-0.286036	37.221212	1.000000
38	0.000001	-0.000001	0.000001	4.728000	-0.207862	35.616414	1.000000
39	0.000000	0.000000	0.000000	4.505699	-0.129345	33.871731	1.000000
40	0.000000	-0.000000	0.000000	4.265449	-0.052919	32.005686	1.000000
[bicep_up_right]
# Tx<tab>Ty<tab>Tz<tab>Rx<tab>Ry<tab>Rz<tab>BoneScaleFactor<CR>
37	-0.000001	-0.000001	0.000000	0.000000	-0.000002	0.000002	1.000000
38	0.000000	0.000000	0.000000	0.000000	-0.000000	0.000000	1.000000
39	0.000000	-0.000001	0.000000	0.000002	-0.000000	-0.000002	1.000000
40	-0.000001	-0.000001	0.000000	0.000002	0.000002	-0.000002	1.000000
[forearm_up_right]
# Tx<tab>Ty<tab>Tz<tab>Rx<tab>Ry<tab>Rz<tab>BoneScaleFactor<CR>
37	0.000000	0.000001	-0.000001	-30.930911	-16.631219	24.128687	1.000000
38	0.000002	0.000001	0.000000	-29.426668	-16.206465	22.888831	1.000000
39	0.000000	0.000001	-0.000002	-27.805907	-15.709468	21.557322	1.000000
40	0.000000	0.000001	0.000000	-26.090184	-15.138131	20.153231	1.000000
[hand_up_right]
# Tx<tab>Ty<tab>Tz<tab>Rx<tab>Ry<tab>Rz<tab>BoneScaleFactor<CR>
37	-0.000000	-0.000002	-0.000002	5.414528	48.847423	5.894239	1.000000
38	0.000001	0.000001	0.000000	4.943070	46.765325	5.406635	1.000000
39	0.000000	-0.000001	-0.000002	4.477107	44.493321	4.922801	1.000000
40	0.000000	0.000001	0.000000	4.025219	42.054755	4.451432	1.000000
[shoulder_down_right]
# Tx<tab>Ty<tab>Tz<tab>Rx<tab>Ry<tab>Rz<tab>BoneScaleFactor<CR>
37	-0.000001	-0.000000	0.000000	-0.000002	-0.000000	0.000003	1.000000
38	0.000000	0.000000	0.000000	-0.000002	-0.000000	-0.000002	1.000000
39	-0.000001	0.000001	0.000000	0.000002	-0.000000	0.000002	1.000000
40	-0.000001	-0.000001	0.000000	0.000000	-0.000000	0.000000	1.000000
[bicep_down_right]
# Tx<tab>Ty<tab>Tz<tab>Rx<tab>Ry<tab>Rz<tab>BoneScaleFactor<CR>
37	-0.000001	0.000000	0.000000	-33.960428	26.003102	-11.175410	1.000000
38	0.000001	-0.000000	-0.000001	-32.267105	25.050562	-10.317691	1.000000
39	-0.000001	0.000000	0.000000	-30.457470	23.988980	-9.427395	1.000000
40	0.000000	-0.000000	0.000000	-28.556883	22.825299	-8.523287	1.000000
[forearm_down_right]
# Tx<tab>Ty<tab>Tz<tab>Rx<tab>Ry<tab>Rz<tab>BoneScaleFactor<CR>
37	0.000001	0.000000	0.000000	-22.417372	19.370712	0.169784	1.000000
38	0.000000	-0.000000	0.000000	-21.403931	18.540395	0.327820	1.000000
39	0.000001	0.000000	0.000000	-20.312028	17.636283	0.481047	1.000000
40	-0.000001	-0.000001	-0.000000	-19.154552	16.667854	0.623973	1.000000
[hand_down_right]
# Tx<tab>Ty<tab>Tz<tab>Rx<tab>Ry<tab>Rz<tab>BoneScaleFactor<CR>
37	0.000000	0.000000	0.000000	0.000000	-0.000000	-0.000003	1.000000
38	0.000001	-0.000000	-0.000000	0.000000	-0.000001	-0.000002	1.000000
39	0.000000	0.000000	0.000000	0.000002	-0.000000	-0.000002	1.000000
40	0.000000	-0.000001	0.000000	0.000002	-0.000000	0.000002	1.000000
[hip_left]
# Tx<tab>Ty<tab>Tz<tab>Rx<tab>Ry<tab>Rz<tab>BoneScaleFactor<CR>
37	0.000000	-0.000000	0.000000	0.000000	-0.000000	-0.000000	1.000000
38	0.000000	-0.000000	0.000000	0.000000	-0.000000	-0.000000	1.000000
39	0.000000	-0.000000	0.000000	0.000000	-0.000000	-0.000000	1.000000
40	0.000000	-0.000000	0.000000	0.000000	-0.000000	-0.000000	1.000000
[thigh_left]
# Tx<tab>Ty<tab>Tz<tab>Rx<tab>Ry<tab>Rz<tab>BoneScaleFactor<CR>
37	0.000000	-0.000000	0.000000	0.000001	-0.000000	0.000000	1.000000
38	0.000000	-0.000000	0.000000	0.000001	-0.000000	0.000000	1.000000
39	0.000000	-0.000000	0.000000	0.000001	-0.000000	0.000000	1.000000
40	0.000000	-0.000000	0.000000	0.000001	-0.000000	0.000000	1.000000
[shin_left]
# Tx<tab>Ty<tab>Tz<tab>Rx<tab>Ry<tab>Rz<tab>BoneScaleFactor<CR>
37	0.000000	-0.000000	0.000000	0.000000	0.000000	-0.000000	1.000000
38	0.000000	-0.000000	0.000000	0.000000	0.000000	-0.000000	1.000000
39	0.000000	-0.000000	0.000000	0.000000	0.000000	-0.000000	1.000000
40	0.000000	-0.000000	0.000000	0.000000	0.000000	-0.000000	1.000000
[foot_left]
# Tx<tab>Ty<tab>Tz<tab>Rx<tab>Ry<tab>Rz<tab>BoneScaleFactor<CR>
37	0.000000	-0.000000	0.000000	-0.000000	-0.000000	0.000000	1.000000
38	0.000000	-0.000000	0.000000	-0.000000	-0.000000	0.000000	1.000000
39	0.000000	-0.000000	0.000000	-0.000000	-0.000000	0.000000	1.000000
40	0.000000	-0.000000	0.000000	-0.000000	-0.000000	0.000000	1.000000
[hip_right]
# Tx<tab>Ty<tab>Tz<tab>Rx<tab>Ry<tab>Rz<tab>BoneScaleFactor<CR>
37	-0.000000	-0.000000	0.000000	0.000000	0.000000	0.000000	1.000000
38	-0.000000	-0.000000	0.000000	0.000000	0.000000	0.000000	1.000000
39	-0.000000	-0.000000	0.000000	0.000000	0.000000	0.000000	1.000000
40	-0.000000	-0.000000	0.000000	0.000000	0.000000	0.000000	1.000000
[thigh_right]
# Tx<tab>Ty<tab>Tz<tab>Rx<tab>Ry<tab>Rz<tab>BoneScaleFactor<CR>
37	-0.000000	-0.000000	0.000000	0.000001	0.000000	-0.000000	1.000000
38	-0.000000	-0.000000	0.000000	0.000001	0.000000	-0.000000	1.000000
39	-0.000000	-0.000000	0.000000	0.000001	0.000000	-0.000000	1.000000
40	-0.000000	-0.000000	0.000000	0.000001	0.000000	-0.000000	1.000000
[shin_right]
# Tx<tab>Ty<tab>Tz<tab>Rx<tab>Ry<tab>Rz<tab>BoneScaleFactor<CR>
37	0.000000	-0.000000	0.000000	0.000000	-0.000000	0.000000	1.000000
38	0.000000	-0.000000	0.000000	0.000000	-0.000000	0.000000	1.000000
39	0.000000	-0.000000	0.000000	0.000000	-0.000000	0.000000	1.000000
40	0.000000	-0.000000	0.000000	0.000000	-0.000000	0.000000	1.000000
[foot_right]
# Tx<tab>Ty<tab>Tz<tab>Rx<tab>Ry<tab>Rz<tab>BoneScaleFactor<CR>
37	-0.000000	-0.000000	0.000000	-0.000000	-0.000000	0.000000	1.000000
38	-0.000000	-0.000000	0.000000	-0.000000	-0.000000	0.000000	1.000000
39	-0.000000	-0.000000	0.000000	-0.000000	-0.000000	0.000000	1.000000
40	-0.000000	-0.000000	0.000000	-0.000000	-0.000000	0.000000	1.000000
[EndOfFile]
